<svg width="121" height="24" viewBox="0 0 121 24" fill="none" xmlns="http://www.w3.org/2000/svg">
<path d="M6.688 23.448C5.408 23.448 4.43733 23.1067 3.776 22.424C3.11467 21.7413 2.784 20.7493 2.784 19.448V12.056C2.784 11.8853 2.70933 11.7573 2.56 11.672C2.432 11.5867 2.16533 11.5333 1.76 11.512H1.408C1.28 11.512 1.17333 11.416 1.088 11.224C1.00267 11.0107 0.96 10.808 0.96 10.616C0.96 10.5733 0.970667 10.52 0.992 10.456C1.03467 10.3707 1.088 10.3173 1.152 10.296C1.64267 10.0827 2.144 9.79467 2.656 9.432C3.168 9.048 3.648 8.664 4.096 8.28C4.544 7.87467 4.91733 7.53333 5.216 7.256C5.36533 7.14933 5.48267 7.05333 5.568 6.968C5.67467 6.88267 5.792 6.84 5.92 6.84C6.09067 6.84 6.21867 6.88267 6.304 6.968C6.41067 7.032 6.44267 7.17067 6.4 7.384L6.208 9.144C6.18667 9.4 6.24 9.57067 6.368 9.656C6.51733 9.74133 6.72 9.784 6.976 9.784H10.752C10.816 9.784 10.88 9.85867 10.944 10.008C11.008 10.1573 11.04 10.3067 11.04 10.456C11.04 10.7333 10.9973 10.9893 10.912 11.224C10.848 11.4587 10.7627 11.576 10.656 11.576H7.616C7.12533 11.576 6.784 11.6293 6.592 11.736C6.42133 11.8427 6.336 12.0667 6.336 12.408V18.552C6.336 19.4907 6.51733 20.2053 6.88 20.696C7.24267 21.1653 7.75467 21.4 8.416 21.4C9.01333 21.4 9.46133 21.3467 9.76 21.24C10.08 21.1333 10.368 21.0053 10.624 20.856C10.688 20.8133 10.7413 20.792 10.784 20.792C10.8907 20.792 10.9653 20.856 11.008 20.984C11.072 21.112 11.104 21.2507 11.104 21.4C11.104 21.5067 10.8907 21.7307 10.464 22.072C10.0587 22.4133 9.51467 22.7227 8.832 23C8.17067 23.2987 7.456 23.448 6.688 23.448ZM12.655 23.096C12.4843 23.096 12.3457 23.064 12.239 23C12.1323 22.9147 12.079 22.808 12.079 22.68C12.079 22.5093 12.143 22.3813 12.271 22.296C12.399 22.2107 12.5483 22.1467 12.719 22.104C13.231 21.976 13.5937 21.8373 13.807 21.688C14.0417 21.5387 14.159 21.2827 14.159 20.92V13.976C14.159 13.2933 14.0523 12.7813 13.839 12.44C13.6257 12.0987 13.263 11.8853 12.751 11.8C12.6443 11.7787 12.559 11.7253 12.495 11.64C12.431 11.5333 12.399 11.416 12.399 11.288C12.399 10.9893 12.5163 10.8293 12.751 10.808C13.775 10.5947 14.6603 10.3067 15.407 9.944C16.175 9.56 16.7617 9.26133 17.167 9.048C17.4657 8.89867 17.6577 8.824 17.743 8.824C17.9777 8.824 18.095 8.93067 18.095 9.144C18.0737 9.44267 18.031 9.85867 17.967 10.392C17.903 10.904 17.839 11.4587 17.775 12.056C17.7323 12.632 17.711 13.176 17.711 13.688V20.888C17.711 21.208 17.8283 21.4533 18.063 21.624C18.2977 21.7947 18.671 21.9547 19.183 22.104C19.3537 22.168 19.503 22.2427 19.631 22.328C19.759 22.392 19.823 22.5093 19.823 22.68C19.823 22.936 19.6417 23.064 19.279 23.064C18.8737 23.064 18.479 23.0533 18.095 23.032C17.7323 23.0107 17.3697 22.9893 17.007 22.968C16.6657 22.9467 16.303 22.936 15.919 22.936C15.5563 22.936 15.2043 22.9467 14.863 22.968C14.5217 22.9893 14.1697 23.0107 13.807 23.032C13.4657 23.0747 13.0817 23.096 12.655 23.096ZM15.855 6.968C15.2363 6.968 14.7137 6.75467 14.287 6.328C13.8603 5.90133 13.647 5.38933 13.647 4.792C13.647 4.13067 13.8603 3.58667 14.287 3.16C14.7137 2.73333 15.2363 2.52 15.855 2.52C16.495 2.52 17.0283 2.73333 17.455 3.16C17.8817 3.58667 18.095 4.13067 18.095 4.792C18.095 5.38933 17.8817 5.90133 17.455 6.328C17.0283 6.75467 16.495 6.968 15.855 6.968ZM27.0965 23.448C25.9872 23.448 24.9845 23.16 24.0885 22.584C23.1925 22.008 22.4778 21.2187 21.9445 20.216C21.4325 19.192 21.1765 18.0507 21.1765 16.792C21.1765 15.4053 21.4965 14.1573 22.1365 13.048C22.7765 11.9173 23.6192 11.0213 24.6645 10.36C25.7312 9.69867 26.9152 9.368 28.2165 9.368C29.8378 9.368 31.2032 9.88 32.3125 10.904C32.5258 11.096 32.6325 11.288 32.6325 11.48C32.6325 11.6293 32.5472 11.8213 32.3765 12.056C32.2058 12.2907 32.0032 12.4933 31.7685 12.664C31.5338 12.8347 31.3312 12.92 31.1605 12.92C30.9898 12.92 30.8298 12.8667 30.6805 12.76C30.5312 12.6533 30.3818 12.536 30.2325 12.408C29.6992 11.9813 29.1445 11.6187 28.5685 11.32C27.9925 11.0213 27.5018 10.872 27.0965 10.872C26.2218 10.872 25.5392 11.256 25.0485 12.024C24.5578 12.792 24.3125 13.944 24.3125 15.48C24.3125 16.5253 24.4938 17.432 24.8565 18.2C25.2192 18.968 25.7312 19.5653 26.3925 19.992C27.0538 20.4187 27.8218 20.632 28.6965 20.632C29.3365 20.632 29.8805 20.536 30.3285 20.344C30.7978 20.1307 31.2885 19.8 31.8005 19.352C31.8858 19.288 31.9605 19.2347 32.0245 19.192C32.1098 19.128 32.1952 19.096 32.2805 19.096C32.5152 19.096 32.6325 19.2667 32.6325 19.608C32.6325 19.6933 32.6112 19.8213 32.5685 19.992C32.5258 20.1413 32.4405 20.312 32.3125 20.504C32.0778 20.9307 31.6938 21.3787 31.1605 21.848C30.6485 22.3173 30.0512 22.7013 29.3685 23C28.6858 23.2987 27.9285 23.448 27.0965 23.448ZM34.466 23.096C34.018 23.096 33.794 22.9573 33.794 22.68C33.794 22.5093 33.858 22.392 33.986 22.328C34.1353 22.2427 34.3167 22.1573 34.53 22.072C34.85 21.9653 35.138 21.848 35.394 21.72C35.6713 21.5707 35.81 21.272 35.81 20.824V5.24C35.81 4.57867 35.714 4.056 35.522 3.672C35.3513 3.288 34.9993 3.04267 34.466 2.936C34.2527 2.89333 34.146 2.73333 34.146 2.456C34.146 2.2 34.242 2.05067 34.434 2.008C34.9887 1.90133 35.5433 1.752 36.098 1.56C36.6527 1.368 37.1753 1.176 37.666 0.983999C38.1567 0.791999 38.562 0.642666 38.882 0.535999C39.0527 0.471999 39.1807 0.439999 39.266 0.439999C39.3727 0.439999 39.4473 0.471999 39.49 0.535999C39.5327 0.599998 39.554 0.685332 39.554 0.792C39.554 0.983999 39.522 1.32533 39.458 1.816C39.394 2.28533 39.3513 2.904 39.33 3.672L39.362 15.16C39.362 15.3947 39.4367 15.512 39.586 15.512C39.6713 15.512 39.778 15.48 39.906 15.416C40.0553 15.352 40.194 15.256 40.322 15.128C41.1327 14.424 41.8367 13.7413 42.434 13.08C43.0527 12.4187 43.4687 11.9387 43.682 11.64C43.7887 11.512 43.8633 11.4053 43.906 11.32C43.9487 11.2347 43.97 11.16 43.97 11.096C43.97 10.9893 43.8847 10.8933 43.714 10.808C43.5433 10.7013 43.3087 10.6267 43.01 10.584C42.754 10.52 42.626 10.392 42.626 10.2C42.626 10.0507 42.7007 9.944 42.85 9.88C42.9993 9.816 43.1593 9.784 43.33 9.784H44.898C45.2607 9.784 45.7087 9.76267 46.242 9.72C46.7967 9.67733 47.3193 9.63467 47.81 9.592C48.322 9.528 48.706 9.48533 48.962 9.464C49.218 9.464 49.346 9.58133 49.346 9.816C49.346 9.96533 49.2713 10.0933 49.122 10.2C48.994 10.3067 48.8127 10.392 48.578 10.456C48.194 10.5413 47.778 10.6907 47.33 10.904C46.9033 11.096 46.466 11.32 46.018 11.576C45.7407 11.7253 45.3887 11.96 44.962 12.28C44.5353 12.6 44.0873 12.952 43.618 13.336C43.17 13.6987 42.754 14.0613 42.37 14.424C42.2633 14.5307 42.21 14.6373 42.21 14.744C42.21 14.808 42.2207 14.8613 42.242 14.904C42.2847 14.9467 42.3273 15 42.37 15.064C42.9033 15.7253 43.426 16.3867 43.938 17.048C44.4713 17.7093 44.9833 18.328 45.474 18.904C45.9647 19.48 46.402 19.992 46.786 20.44C47.1487 20.8027 47.5753 21.144 48.066 21.464C48.578 21.7627 48.994 21.9653 49.314 22.072C49.5273 22.1573 49.73 22.2427 49.922 22.328C50.1353 22.392 50.242 22.5093 50.242 22.68C50.242 22.9573 50.018 23.096 49.57 23.096C48.418 23.096 47.2553 23.0747 46.082 23.032C44.93 23.0107 43.8207 23 42.754 23C42.3487 23 42.146 22.872 42.146 22.616C42.146 22.4667 42.1993 22.3493 42.306 22.264C42.434 22.1573 42.594 22.072 42.786 22.008C42.978 21.944 43.1273 21.8693 43.234 21.784C43.3407 21.6773 43.4047 21.56 43.426 21.432C43.426 21.3467 43.394 21.2613 43.33 21.176C43.266 21.0693 43.1807 20.9413 43.074 20.792L39.746 16.504C39.6607 16.3973 39.586 16.344 39.522 16.344C39.4153 16.3653 39.362 16.4507 39.362 16.6C39.3407 16.8987 39.33 17.2187 39.33 17.56C39.33 17.9013 39.33 18.2427 39.33 18.584C39.33 18.9467 39.33 19.32 39.33 19.704C39.33 20.088 39.3407 20.4613 39.362 20.824C39.362 21.208 39.4473 21.4853 39.618 21.656C39.7887 21.8267 40.034 21.9653 40.354 22.072C40.5247 22.136 40.6847 22.2107 40.834 22.296C40.9833 22.36 41.058 22.4773 41.058 22.648C41.058 22.7973 40.9833 22.9147 40.834 23C40.6847 23.064 40.546 23.096 40.418 23.096C40.0127 23.096 39.6607 23.0747 39.362 23.032C39.0633 23.0107 38.7753 22.9893 38.498 22.968C38.2207 22.9467 37.89 22.936 37.506 22.936C37.1433 22.936 36.8127 22.9467 36.514 22.968C36.2153 22.9893 35.906 23.0107 35.586 23.032C35.266 23.0747 34.8927 23.096 34.466 23.096ZM51.2175 23.128C51.0255 23.128 50.8548 23.0853 50.7055 23C50.5562 22.936 50.4815 22.84 50.4815 22.712C50.4815 22.392 50.7482 22.1787 51.2815 22.072C52.0922 21.9013 52.6788 21.6667 53.0415 21.368C53.4042 21.0693 53.5855 20.5787 53.5855 19.896V5.368C53.5855 4.664 53.4362 4.16267 53.1375 3.864C52.8388 3.56533 52.2735 3.33067 51.4415 3.16C50.9082 3.05333 50.6415 2.82933 50.6415 2.488C50.6415 2.36 50.7162 2.264 50.8655 2.2C51.0148 2.11467 51.1855 2.072 51.3775 2.072C51.8895 2.072 52.3908 2.08267 52.8815 2.104C53.3722 2.12533 53.8415 2.14667 54.2895 2.168C54.7588 2.18933 55.2282 2.2 55.6975 2.2C56.1455 2.2 56.5935 2.18933 57.0415 2.168C57.5108 2.14667 57.9908 2.12533 58.4815 2.104C58.9722 2.08267 59.4735 2.072 59.9855 2.072C60.1988 2.072 60.3695 2.11467 60.4975 2.2C60.6255 2.264 60.6895 2.37067 60.6895 2.52C60.6895 2.69067 60.6148 2.82933 60.4655 2.936C60.3375 3.02133 60.1455 3.096 59.8895 3.16C59.0362 3.37333 58.4602 3.62933 58.1615 3.928C57.8628 4.22667 57.7135 4.71733 57.7135 5.4V19.864C57.7135 20.5253 57.8842 21.0053 58.2255 21.304C58.5882 21.6027 59.1748 21.8587 59.9855 22.072C60.2628 22.136 60.4655 22.2107 60.5935 22.296C60.7428 22.3813 60.8175 22.5093 60.8175 22.68C60.8175 22.8293 60.7535 22.936 60.6255 23C60.4975 23.064 60.3268 23.096 60.1135 23.096C59.6015 23.096 59.0895 23.0853 58.5775 23.064C58.0655 23.0427 57.5642 23.0213 57.0735 23C56.6042 22.9787 56.1455 22.968 55.6975 22.968C55.2282 22.968 54.7482 22.9787 54.2575 23C53.7668 23.0213 53.2655 23.0427 52.7535 23.064C52.2415 23.1067 51.7295 23.128 51.2175 23.128ZM68.0318 23.448C66.7518 23.448 65.7811 23.1067 65.1198 22.424C64.4584 21.7413 64.1278 20.7493 64.1278 19.448V12.056C64.1278 11.8853 64.0531 11.7573 63.9038 11.672C63.7758 11.5867 63.5091 11.5333 63.1038 11.512H62.7518C62.6238 11.512 62.5171 11.416 62.4318 11.224C62.3464 11.0107 62.3038 10.808 62.3038 10.616C62.3038 10.5733 62.3144 10.52 62.3358 10.456C62.3784 10.3707 62.4318 10.3173 62.4958 10.296C62.9864 10.0827 63.4878 9.79467 63.9998 9.432C64.5118 9.048 64.9918 8.664 65.4398 8.28C65.8878 7.87467 66.2611 7.53333 66.5598 7.256C66.7091 7.14933 66.8264 7.05333 66.9118 6.968C67.0184 6.88267 67.1358 6.84 67.2638 6.84C67.4344 6.84 67.5624 6.88267 67.6478 6.968C67.7544 7.032 67.7864 7.17067 67.7438 7.384L67.5518 9.144C67.5304 9.4 67.5838 9.57067 67.7118 9.656C67.8611 9.74133 68.0638 9.784 68.3198 9.784H72.0958C72.1598 9.784 72.2238 9.85867 72.2878 10.008C72.3518 10.1573 72.3838 10.3067 72.3838 10.456C72.3838 10.7333 72.3411 10.9893 72.2558 11.224C72.1918 11.4587 72.1064 11.576 71.9998 11.576H68.9598C68.4691 11.576 68.1278 11.6293 67.9358 11.736C67.7651 11.8427 67.6798 12.0667 67.6798 12.408V18.552C67.6798 19.4907 67.8611 20.2053 68.2238 20.696C68.5864 21.1653 69.0984 21.4 69.7598 21.4C70.3571 21.4 70.8051 21.3467 71.1038 21.24C71.4238 21.1333 71.7118 21.0053 71.9678 20.856C72.0318 20.8133 72.0851 20.792 72.1278 20.792C72.2344 20.792 72.3091 20.856 72.3518 20.984C72.4158 21.112 72.4478 21.2507 72.4478 21.4C72.4478 21.5067 72.2344 21.7307 71.8078 22.072C71.4024 22.4133 70.8584 22.7227 70.1758 23C69.5144 23.2987 68.7998 23.448 68.0318 23.448ZM84.7508 23.448C83.3001 23.448 81.9134 23.2027 80.5908 22.712C79.2681 22.2 78.0948 21.4853 77.0708 20.568C76.0681 19.6293 75.2681 18.52 74.6708 17.24C74.0948 15.9387 73.8068 14.4987 73.8068 12.92C73.8068 11.4693 74.0414 10.0827 74.5108 8.76C75.0014 7.416 75.7161 6.22133 76.6548 5.176C77.6148 4.13067 78.7881 3.29867 80.1748 2.68C81.5828 2.06133 83.2041 1.752 85.0388 1.752C86.4894 1.752 87.8654 2.008 89.1667 2.52C90.4894 3.01067 91.6628 3.72533 92.6868 4.664C93.7108 5.58133 94.5108 6.69067 95.0868 7.992C95.6841 9.272 95.9828 10.7013 95.9828 12.28C95.9828 13.7093 95.7374 15.096 95.2468 16.44C94.7774 17.784 94.0628 18.9787 93.1028 20.024C92.1641 21.0693 90.9908 21.9013 89.5828 22.52C88.1961 23.1387 86.5854 23.448 84.7508 23.448ZM85.2948 22.04C86.6388 22.04 87.7588 21.6987 88.6548 21.016C89.5721 20.3333 90.2548 19.384 90.7028 18.168C91.1721 16.9307 91.4068 15.512 91.4068 13.912C91.4068 12.5467 91.2681 11.224 90.9908 9.944C90.7134 8.664 90.2868 7.52267 89.7108 6.52C89.1348 5.496 88.4094 4.68533 87.5348 4.088C86.6814 3.49067 85.6574 3.192 84.4628 3.192C83.1188 3.192 81.9881 3.53333 81.0708 4.216C80.1748 4.89867 79.5028 5.848 79.0548 7.064C78.6068 8.28 78.3828 9.688 78.3828 11.288C78.3828 12.6533 78.5214 13.976 78.7988 15.256C79.0761 16.536 79.4921 17.688 80.0468 18.712C80.6228 19.736 81.3374 20.5467 82.1908 21.144C83.0654 21.7413 84.1001 22.04 85.2948 22.04ZM98.4065 23.096C98.2358 23.096 98.0865 23.064 97.9585 23C97.8305 22.9147 97.7665 22.808 97.7665 22.68C97.7665 22.5093 97.8412 22.3813 97.9905 22.296C98.1398 22.2107 98.3105 22.136 98.5025 22.072C98.8225 21.9653 99.1105 21.8267 99.3665 21.656C99.6438 21.4853 99.7825 21.1867 99.7825 20.76V11.704C99.5692 11.704 99.3238 11.704 99.0465 11.704C98.7692 11.6827 98.4598 11.6613 98.1185 11.64C98.0118 11.6187 97.9052 11.512 97.7985 11.32C97.7132 11.128 97.6705 10.9573 97.6705 10.808C97.6705 10.744 97.7025 10.6907 97.7665 10.648C97.8305 10.6053 97.8838 10.5733 97.9265 10.552C98.2892 10.424 98.6092 10.3067 98.8865 10.2C99.1638 10.072 99.4625 9.92267 99.7825 9.752C99.8252 8.28 100.103 7.032 100.615 6.008C101.148 4.96267 101.809 4.12 102.599 3.48C103.388 2.81867 104.22 2.33867 105.095 2.04C105.991 1.74133 106.823 1.592 107.591 1.592C108.935 1.592 109.991 1.816 110.759 2.264C111.527 2.69067 111.911 3.18133 111.911 3.736C111.911 4.16267 111.751 4.54667 111.431 4.888C111.111 5.208 110.769 5.368 110.407 5.368C110.215 5.368 110.033 5.28267 109.863 5.112C109.692 4.94133 109.5 4.73867 109.287 4.504C109.009 4.184 108.647 3.88533 108.199 3.608C107.751 3.30933 107.164 3.16 106.439 3.16C105.521 3.16 104.775 3.59733 104.199 4.472C103.623 5.34667 103.335 6.72267 103.335 8.6V9.08C103.335 9.35733 103.409 9.54933 103.559 9.656C103.729 9.74133 103.921 9.784 104.135 9.784H110.247C110.332 9.784 110.375 9.90133 110.375 10.136C110.375 10.3067 110.353 10.52 110.311 10.776C110.268 11.0107 110.215 11.224 110.151 11.416C110.108 11.5867 110.044 11.672 109.959 11.672H104.615C104.039 11.672 103.676 11.7467 103.527 11.896C103.399 12.024 103.335 12.1733 103.335 12.344V20.696C103.335 21.1227 103.484 21.4427 103.783 21.656C104.081 21.848 104.455 21.9867 104.903 22.072C105.095 22.1147 105.255 22.1893 105.383 22.296C105.511 22.3813 105.575 22.5093 105.575 22.68C105.575 22.808 105.521 22.9147 105.415 23C105.308 23.064 105.169 23.096 104.999 23.096C104.572 23.096 104.167 23.0747 103.783 23.032C103.42 23.0107 103.057 22.9893 102.695 22.968C102.353 22.9467 101.991 22.936 101.607 22.936C101.244 22.936 100.903 22.9467 100.583 22.968C100.263 22.9893 99.9212 23.0107 99.5585 23.032C99.2172 23.0747 98.8332 23.096 98.4065 23.096ZM107.623 23.096C107.452 23.096 107.303 23.064 107.175 23C107.047 22.9147 106.983 22.808 106.983 22.68C106.983 22.5093 107.036 22.3813 107.143 22.296C107.271 22.2107 107.431 22.1467 107.623 22.104C108.199 21.9333 108.572 21.7627 108.743 21.592C108.913 21.4213 108.999 21.144 108.999 20.76V11.704C108.785 11.704 108.54 11.704 108.263 11.704C107.985 11.6827 107.676 11.6613 107.335 11.64C107.228 11.6187 107.121 11.512 107.015 11.32C106.929 11.128 106.887 10.9573 106.887 10.808C106.887 10.744 106.919 10.6907 106.983 10.648C107.047 10.6053 107.1 10.5733 107.143 10.552C107.463 10.4027 107.761 10.264 108.039 10.136C108.337 10.008 108.657 9.86933 108.999 9.72C109.063 7.94933 109.351 6.46667 109.863 5.272C110.396 4.07733 111.057 3.128 111.847 2.424C112.636 1.69867 113.468 1.18667 114.343 0.887999C115.217 0.567999 116.049 0.407999 116.839 0.407999C118.204 0.407999 119.196 0.610666 119.815 1.016C120.455 1.4 120.775 1.96533 120.775 2.712C120.775 3.18133 120.657 3.55467 120.423 3.832C120.209 4.088 119.921 4.216 119.559 4.216C119.367 4.216 119.175 4.14133 118.983 3.992C118.812 3.82133 118.62 3.608 118.407 3.352C118.087 3.01067 117.692 2.66933 117.223 2.328C116.753 1.98667 116.177 1.816 115.495 1.816C114.577 1.816 113.852 2.21067 113.319 3C112.807 3.78933 112.551 5.016 112.551 6.68V9.4C112.551 9.54933 112.593 9.656 112.679 9.72C112.785 9.76267 112.892 9.784 112.999 9.784H116.743C116.892 9.784 117.009 9.83733 117.095 9.944C117.18 10.0293 117.223 10.136 117.223 10.264C117.223 10.4347 117.201 10.6267 117.159 10.84C117.116 11.032 117.063 11.192 116.999 11.32C116.913 11.4907 116.817 11.576 116.711 11.576H113.543C113.137 11.576 112.871 11.6293 112.743 11.736C112.615 11.8213 112.551 11.9813 112.551 12.216V20.408C112.551 20.92 112.679 21.2933 112.935 21.528C113.191 21.7413 113.767 21.9227 114.663 22.072C115.089 22.1573 115.303 22.3493 115.303 22.648C115.303 22.776 115.249 22.8827 115.142 22.968C115.036 23.0533 114.908 23.096 114.759 23.096C114.119 23.096 113.447 23.064 112.743 23C112.039 22.9573 111.409 22.936 110.855 22.936C110.492 22.936 110.14 22.9467 109.799 22.968C109.479 22.9893 109.137 23.0107 108.775 23.032C108.433 23.0747 108.049 23.096 107.623 23.096Z" fill="#505050"/>
</svg>
